<svg xmlns="http://www.w3.org/2000/svg" viewBox="0 0 888 280">
    <g transform="matrix(11, 0, 0, 11, 340, 40)">
        <path fill="#11a611" d="M3.29 2.80C2.17 2.80 1.30 3.50 1.30 5.03L1.30 7.13L0.42 7.13L0.42 8.75L1.30 8.75L1.30 13.30L3.40 13.30L3.40 8.75L4.84 8.75L4.84 7.13L3.40 7.13L3.40 5.28C3.40 4.68 3.51 4.44 3.95 4.44L4.84 4.44L4.84 2.80ZM8.37 2.80C7.25 2.80 6.38 3.50 6.38 5.03L6.38 7.13L5.50 7.13L5.50 8.75L6.38 8.75L6.38 13.30L8.48 13.30L8.48 8.75L9.93 8.75L9.93 7.13L8.48 7.13L8.48 5.28C8.48 4.68 8.60 4.44 9.03 4.44L9.93 4.44L9.93 2.80ZM10.89 5.01C10.89 5.68 11.44 6.24 12.12 6.24C12.80 6.24 13.36 5.68 13.36 5.01C13.36 4.33 12.80 3.78 12.12 3.78C11.44 3.78 10.89 4.33 10.89 5.01ZM13.17 13.30L13.17 7.13L11.07 7.13L11.07 13.30Z"></path>
        <path fill="#ffd343" d="M17.02 13.30L17.02 2.80L14.92 2.80L14.92 13.30ZM18.56 10.64C18.56 12.31 19.24 13.44 20.89 13.44C21.70 13.44 22.36 13.08 22.78 12.54L22.78 13.30L24.88 13.30L24.88 7.13L22.78 7.13L22.78 10.22C22.78 11.05 22.26 11.76 21.60 11.76C20.94 11.76 20.66 11.35 20.66 10.64L20.66 7.13L18.56 7.13ZM28.66 10.22C28.66 9.41 29.29 8.68 30.13 8.68C30.97 8.68 31.60 9.41 31.60 10.22C31.60 11.03 30.97 11.76 30.13 11.76C29.29 11.76 28.66 11.03 28.66 10.22ZM28.66 16.80L28.66 12.56C29.08 13.19 29.97 13.44 30.77 13.44C32.52 13.44 33.84 11.93 33.84 10.22C33.84 8.51 32.52 6.99 30.77 6.99C29.97 6.99 29.20 7.21 28.66 7.88L28.66 7.13L26.56 7.13L26.56 16.80ZM40.00 10.22C40.00 11.03 39.37 11.76 38.53 11.76C37.69 11.76 37.06 11.03 37.06 10.22C37.06 9.41 37.69 8.68 38.53 8.68C39.37 8.68 40.00 9.41 40.00 10.22ZM42.10 7.14L40.00 7.14L40.00 7.88C39.45 7.21 38.67 6.99 37.88 6.99C36.13 6.99 34.82 8.51 34.82 10.22C34.82 11.93 36.13 13.44 37.88 13.44C38.67 13.44 39.58 13.19 40.00 12.56L40.00 13.30L42.10 13.30Z"></path>
    </g>
    <g fill="#000080" transform="matrix(2.3, 0, 0, 2.3, 70, 50)">
        <svg xmlns="http://www.w3.org/2000/svg">
            <path d="M83.175 25.884c.597 2.327.511 4.935.331 7.584 8.77 5.6 10.276 8.98 10.213 9.534-.013.02-1.678 2.005-11.28 1.303a75.363 75.363 0 0 1-3.88-.392 33.254 33.254 0 0 0 1.695-10.489C80.254 14.993 65.26 0 46.829 0 32.708 0 20.612 8.807 15.724 21.213c-8.06-5.29-9.491-8.485-9.431-9.023.013-.021 1.417-2.143 11.008-1.444 1.285-2.369 3.343-4.278 5.468-5.786-1.348-.16-3.309-.243-4.732-.347C7.714 3.858 1.936 5.644.372 10.075c-1.67 4.73 2.283 10.134 12.085 16.525.473.308.985.616 1.479.925a33.432 33.432 0 0 0-.532 5.898c0 18.43 14.994 33.423 33.425 33.423 12.443 0 23.313-6.84 29.066-16.952 2.139.312 4.178.544 6.083.685 10.321.753 16.098-1.031 17.662-5.464 2.174-6.149-5.789-13.115-16.465-19.231zM46.829 60.377c-14.864 0-26.956-12.089-26.956-26.954 0-.809.042-1.608.113-2.399 6.032 3.25 13.04 6.419 20.591 9.274.203-2.183.975-4.2 2.167-5.905-7.947-3.009-15.278-6.372-21.383-9.786 3.662-10.545 13.691-18.14 25.467-18.14 14.862 0 26.956 12.092 26.956 26.955 0 3.325-.609 6.508-1.714 9.45-2.212-.42-4.51-.918-6.875-1.49l.002.059c0 2.189-.579 4.243-1.585 6.029 1.847.447 3.655.849 5.421 1.21-4.864 7.06-13.002 11.697-22.204 11.697z"></path>
            <circle cx="52.67" cy="41.599" r="8.356"></circle>
        </svg>
    </g>
</svg>
